<mxfile host="app.diagrams.net" modified="2024-04-15T08:24:58.301Z" agent="Mozilla/5.0 (Windows NT 10.0; Win64; x64) AppleWebKit/537.36 (KHTML, like Gecko) Chrome/123.0.0.0 Safari/537.36 Edg/123.0.0.0" version="24.2.5" etag="DV0lQrWsUEyb6BVxYM8T" type="github">
  <diagram name="Seite-1" id="chUMoD893J8v1nkU7NHA">
    <mxGraphModel>
      <root>
        <mxCell id="0" />
        <mxCell id="1" parent="0" />
      </root>
    </mxGraphModel>
  </diagram>
</mxfile>
